HIERARCHY
ROOT hip
{
	OFFSET 0.000000 0.000000 0.000000 
	CHANNELS 6 Xposition Yposition Zposition Xrotation Zrotation Yrotation
	JOINT abdomen
	{
		OFFSET 0.000000 3.402643 0.000000 
		CHANNELS 3 Xrotation Zrotation Yrotation
		JOINT chest
		{
			OFFSET 0.000000 8.438565 -0.680529 
			CHANNELS 3 Xrotation Zrotation Yrotation
			JOINT neck
			{
				OFFSET 0.000000 10.207942 -0.272212 
				CHANNELS 3 Xrotation Zrotation Yrotation
				JOINT head
				{
					OFFSET 0.000000 3.130431 0.000000 
					CHANNELS 3 Xrotation Zrotation Yrotation
					End Site
					{
						OFFSET 0.000000 3.130435 0.000000 
					}
				}
			}
			JOINT lCollar
			{
				OFFSET 3.470700 6.669187 -0.816635 
				CHANNELS 3 Yrotation Zrotation Xrotation
				JOINT lShldr
				{
					OFFSET 3.198488 0.000000 0.000000 
					CHANNELS 3 Zrotation Yrotation Xrotation
					JOINT lForeArm
					{
						OFFSET 10.139888 0.000000 0.000000 
						CHANNELS 3 Yrotation Zrotation Xrotation
						JOINT lHand
						{
							OFFSET 8.370511 0.000000 0.000000 
							CHANNELS 3 Zrotation Yrotation Xrotation
							End Site
							{
								OFFSET 4.083176 0.000000 0.000000 
							}
						}
					}
				}
			}
			JOINT rCollar
			{
				OFFSET -3.470700 6.669187 -0.816635 
				CHANNELS 3 Yrotation Zrotation Xrotation
				JOINT rShldr
				{
					OFFSET -3.198488 0.000000 0.000000 
					CHANNELS 3 Zrotation Yrotation Xrotation
					JOINT rForeArm
					{
						OFFSET -10.139888 0.000000 0.000000 
						CHANNELS 3 Yrotation Zrotation Xrotation
						JOINT rHand
						{
							OFFSET -8.370511 0.000000 0.000000 
							CHANNELS 3 Zrotation Yrotation Xrotation
							End Site
							{
								OFFSET -4.083176 0.000000 0.000000 
							}
						}
					}
				}
			}
		}
	}
	JOINT lThigh
	{
		OFFSET 5.308129 -1.633274 1.361059 
		CHANNELS 3 Xrotation Zrotation Yrotation
		JOINT lShin
		{
			OFFSET -2.041588 -20.007561 0.000000 
			CHANNELS 3 Xrotation Zrotation Yrotation
			JOINT lFoot
			{
				OFFSET 0.000000 -19.190928 -1.224953 
				CHANNELS 3 Xrotation Yrotation Zrotation
				End Site
				{
					OFFSET 0.000000 -2.449906 4.627600 
				}
			}
		}
	}
	JOINT rThigh
	{
		OFFSET -5.308129 -1.633274 1.361059 
		CHANNELS 3 Xrotation Zrotation Yrotation
		JOINT rShin
		{
			OFFSET 2.041588 -20.007561 0.000000 
			CHANNELS 3 Xrotation Zrotation Yrotation
			JOINT rFoot
			{
				OFFSET 0.000000 -19.190928 -1.224953 
				CHANNELS 3 Xrotation Yrotation Zrotation
				End Site
				{
					OFFSET 0.000000 -2.449906 4.627600 
				}
			}
		}
	}
}
MOTION
Frames: 19
Frame Time: 0.011111
31.252516 51.124565 151.056412 -175.218430 178.519272 2.799266 31.152716 2.123616 2.502668 -35.834541 -3.183957 0.636752 -18.544998 -9.185459 0.163786 16.402288 13.901242 -2.303352 -10.256527 -0.734681 -0.809317 -65.360229 -7.699558 36.357285 -51.553841 8.037719 8.784964 8.524705 12.647240 -67.141975 6.318032 -3.285348 0.526703 71.450790 7.649876 44.315720 55.886986 -8.813309 10.612256 -8.534408 -12.637552 7.161967 -0.674435 1.590600 -23.491234 32.795910 -5.171238 -5.226598 -37.035160 8.285866 4.943132 4.992971 0.626285 19.694029 27.412277 5.452689 4.535671 -39.048702 -20.688835 -12.540932 
31.222345 51.129593 150.940033 -175.160553 -179.579010 2.424272 30.572910 -0.123918 0.681144 -34.316135 -1.287465 0.259348 -18.978741 -8.998614 0.472425 15.746494 12.745506 -1.803795 -10.256527 -0.734681 -0.809317 -66.686394 -9.102395 34.543972 -52.561577 8.240222 9.197066 8.524705 12.647240 -61.858776 6.318032 -3.285348 0.526703 70.203445 8.682417 45.246166 55.717369 -8.787222 10.536289 -8.534408 -12.637552 7.581890 1.058304 -0.361269 -24.332546 31.020241 -5.286243 -5.001803 -36.554306 9.006692 5.177749 4.155359 -1.374573 18.999516 28.987404 5.367882 4.704957 -40.213184 -19.394003 -12.595478 
31.207621 51.168381 150.892273 -175.578598 -178.865875 2.125886 29.942850 -0.960720 0.853592 -34.220474 -1.790869 0.438584 -18.586937 -8.941751 0.283922 15.372471 12.989390 -2.117690 -10.256527 -0.734681 -0.809317 -66.154739 -9.028556 35.123730 -52.572498 8.243352 9.196715 8.524705 12.647240 -61.673233 6.318032 -3.285348 0.526703 70.933601 8.454024 44.388847 55.591003 -8.771665 10.489972 -8.534408 -12.637552 7.415874 1.226673 -1.141931 -24.772358 30.319841 -5.335452 -4.912706 -36.472481 9.554497 5.468966 3.381690 -2.240543 18.740541 29.245924 5.358770 4.764280 -40.300751 -18.676878 -12.304127 
31.222345 51.263924 150.878967 -176.592133 -178.853836 1.340486 28.285849 -1.612347 0.906767 -32.732185 -0.171932 0.384839 -18.859699 -9.177962 0.505816 14.761943 12.138232 -1.927905 -10.256527 -0.734681 -0.809317 -67.423996 -10.285035 34.111012 -52.457058 8.222328 9.154056 8.524705 12.647240 -61.722057 6.318032 -3.285348 0.526703 69.279091 9.232619 45.589542 55.781265 -8.797305 10.559365 -8.534408 -12.637552 8.128763 0.277708 -1.150312 -24.460581 29.989428 -5.354213 -4.887589 -36.687881 9.779703 5.680368 2.047070 -2.437588 18.833414 29.135767 5.368057 4.737491 -39.987141 -18.265388 -11.910545 
31.256472 51.406872 150.903412 -178.125000 -179.546402 0.424762 26.489836 -1.369885 1.924392 -32.478008 -0.260252 0.594721 -18.922720 -9.069850 0.467460 14.758376 12.058030 -1.971360 -10.256527 -0.734681 -0.809317 -67.288620 -10.280779 34.474434 -52.656498 8.260105 9.238466 8.524705 12.647240 -61.204479 6.318032 -3.285348 0.526703 69.218819 9.166548 45.897064 55.992878 -8.828437 10.657005 -8.534408 -12.637552 8.421734 -1.767292 -0.390172 -23.829914 30.160841 -5.341216 -4.880742 -37.011570 9.749811 5.782079 0.347799 -1.890068 19.204168 28.555729 5.396922 4.654038 -39.800575 -18.103716 -11.710068 
31.290590 51.535816 151.024094 -179.736252 178.450470 0.700761 24.942257 0.830441 2.855385 -32.566326 -0.776080 0.575339 -18.845276 -8.928569 0.387754 14.681363 11.914989 -2.071567 -10.256527 -0.734681 -0.809317 -67.235054 -10.360569 34.464558 -52.666103 8.257900 9.240190 8.524705 12.647240 -61.184952 6.318032 -3.285348 0.526703 69.236588 9.099791 46.111439 56.151691 -8.850648 10.723586 -8.534408 -12.637552 8.812359 -4.849473 1.924142 -23.061449 30.621555 -5.302383 -4.960512 -36.345036 9.024024 5.094060 -0.956847 0.234073 19.619049 27.741814 5.447881 4.563371 -40.008320 -18.465160 -12.017364 
31.285563 51.534382 151.026245 -179.726471 178.352936 0.701507 24.980145 0.870480 2.966361 -32.595768 -0.898304 0.614293 -18.814501 -8.731527 0.296525 14.584577 11.785616 -2.188557 -10.256527 -0.734681 -0.809317 -67.200348 -10.284926 34.472317 -52.729759 8.273008 9.269475 8.524705 12.647240 -62.171276 6.318032 -3.285348 0.526703 69.410759 9.110385 46.054306 56.152954 -8.856089 10.733102 -8.534408 -12.637552 9.036968 -5.019911 1.944386 -23.089785 31.050518 -5.282634 -5.003488 -36.530296 8.749614 5.012589 -0.607082 0.213859 19.597883 27.047087 5.494682 4.472884 -39.450668 -18.380409 -11.654963 
31.274429 51.539406 151.008286 -179.755768 178.333084 0.710517 24.910208 0.880175 3.051100 -32.537373 -1.022961 0.642152 -18.755522 -8.568392 0.192319 14.445983 11.586697 -2.327445 -10.256527 -0.734681 -0.809317 -67.132080 -10.233096 34.324631 -52.876480 8.297873 9.323310 8.524705 12.647240 -62.542370 6.318032 -3.285348 0.526703 69.611443 9.143787 45.888439 56.078304 -8.843749 10.699938 -8.534408 -12.637552 9.222514 -5.212022 1.865374 -23.195015 31.439245 -5.262965 -5.052608 -36.751854 8.821471 5.133666 -0.389983 0.136967 19.641670 26.488348 5.502312 4.385784 -39.024330 -18.413105 -11.431164 
31.247847 51.520008 150.980270 -179.570160 178.353394 0.510689 25.042879 0.805678 3.285020 -32.557022 -1.128255 0.727767 -18.630821 -8.451201 0.125666 14.379380 11.421824 -2.420614 -10.256527 -0.734681 -0.809317 -67.175636 -10.260683 33.937767 -52.950890 8.316334 9.363598 8.524705 12.647240 -62.132210 6.318032 -3.285348 0.526703 69.727715 9.068945 45.875202 56.035049 -8.833078 10.668839 -8.534408 -12.637552 9.593610 -4.880867 1.718936 -23.471968 31.470377 -5.253366 -5.052735 -37.044621 9.208695 5.462583 -0.191398 0.047173 19.653584 26.446270 5.513620 4.384736 -38.768005 -18.436630 -11.287466 
31.258266 51.522884 151.007553 -179.609222 178.333923 0.568295 25.129980 0.750882 3.294707 -32.791420 -1.125268 0.732376 -18.555809 -8.349291 0.051878 14.430383 11.225233 -2.522842 -10.256527 -0.734681 -0.809317 -67.380440 -10.257430 33.666027 -52.687763 8.264715 9.249260 8.524705 12.647240 -63.040421 6.318032 -3.285348 0.526703 69.823334 8.922841 45.765667 56.047073 -8.841360 10.688177 -8.534408 -12.637552 9.554545 -4.998765 1.806706 -23.238384 31.480274 -5.253398 -5.053616 -36.824104 9.035713 5.292994 -0.217804 0.086973 19.623901 26.404251 5.522917 4.391989 -38.727730 -18.559767 -11.346931 
31.249645 51.531147 150.995361 -179.648300 178.313705 0.518455 25.021036 0.765322 3.398458 -32.762264 -1.199807 0.763168 -18.523026 -8.284409 0.025130 14.457569 11.164753 -2.558894 -10.256527 -0.734681 -0.809317 -67.555176 -10.417596 33.115688 -52.572311 8.243967 9.206460 8.524705 12.647240 -62.854870 6.318032 -3.285348 0.526703 69.899078 8.941591 45.664398 56.014591 -8.833492 10.666921 -8.534408 -12.637552 9.447124 -5.016638 1.787461 -23.374590 31.479952 -5.253373 -5.063307 -37.088562 8.860502 5.276880 -0.253410 0.097865 19.641165 26.406454 5.513044 4.381169 -38.771790 -18.531630 -11.347667 
31.266529 51.540119 151.020508 -179.726456 178.303741 0.623625 25.022078 0.742207 3.300310 -32.859837 -1.143684 0.736769 -18.501488 -8.247311 0.010322 14.445607 11.097571 -2.574367 -10.256527 -0.734681 -0.809317 -67.632271 -10.421432 33.118740 -52.435410 8.215397 9.145044 8.524705 12.647240 -63.294323 6.318032 -3.285348 0.526703 69.944809 8.966647 45.652386 55.919643 -8.820663 10.623717 -8.534408 -12.637552 9.642437 -5.167935 1.876092 -23.178364 31.470377 -5.253369 -5.052736 -37.063023 8.691404 5.183727 -0.321784 0.156442 19.697136 26.396997 5.508615 4.389048 -38.881836 -18.652918 -11.466908 
31.272272 51.543358 151.029114 -179.814392 178.273651 0.669950 24.954851 0.765835 3.273367 -32.908600 -1.106013 0.721965 -18.469652 -8.200912 -0.008783 14.421572 10.973129 -2.605754 -10.256527 -0.734681 -0.809317 -67.768181 -10.475489 32.762627 -52.499054 8.230824 9.174168 8.524705 12.647240 -62.952530 6.318032 -3.285348 0.526703 69.971085 9.313965 45.896984 55.559937 -8.768331 10.468596 -8.534408 -12.637552 10.140484 -5.291525 1.923933 -23.229071 31.439241 -5.262968 -5.052609 -37.000984 8.994102 5.328121 -0.409797 0.195422 19.681908 26.396477 5.513001 4.379345 -39.009014 -18.723303 -11.584219 
31.269400 51.546951 151.030930 -179.892532 178.292297 0.687087 24.847670 0.746815 3.249431 -32.908550 -1.078615 0.707720 -18.314466 -8.255999 -0.010693 14.223954 10.971832 -2.616055 -10.256527 -0.734681 -0.809317 -67.878868 -10.455579 32.626526 -52.362156 8.202046 9.112864 8.524705 12.647240 -63.450573 6.318032 -3.285348 0.526703 69.874916 8.899407 45.969994 55.792038 -8.800201 10.569170 -8.534408 -12.637552 10.374859 -5.363098 1.876145 -23.322618 31.420195 -5.253374 -5.067782 -36.862492 9.183076 5.382566 -0.522390 0.153761 19.582569 26.394590 5.522917 4.381402 -39.100906 -18.761906 -11.640056 
31.266888 51.552696 151.031998 -179.960922 178.340317 0.694774 24.730202 0.689023 3.219357 -32.908455 -1.030394 0.700053 -18.087530 -8.255198 -0.039842 13.973313 10.888356 -2.680716 -10.256527 -0.734681 -0.809317 -67.951904 -10.428945 32.446709 -52.457058 8.222328 9.154056 8.524705 12.647240 -63.001350 6.318032 -3.285348 0.526703 69.881935 8.841225 45.930923 55.707851 -8.789806 10.534467 -8.534408 -12.637552 10.648297 -5.410823 1.837260 -23.309671 31.401142 -5.248219 -5.064698 -36.778542 9.062039 5.298017 -0.612376 0.093932 19.553034 26.394590 5.522909 4.381401 -38.970325 -18.768112 -11.588305 
31.266167 51.556286 151.030930 -179.990219 178.320435 0.703697 24.651686 0.671306 3.241290 -32.879116 -1.019577 0.707643 -17.890747 -8.047022 -0.121355 13.706458 10.516471 -2.789522 -10.256527 -0.734681 -0.809317 -67.964348 -10.361690 32.487534 -52.383804 8.209015 9.123245 8.524705 12.647240 -63.587292 6.318032 -3.285348 0.526703 69.934685 8.808099 45.783684 55.633186 -8.776683 10.501649 -8.534408 -12.637552 10.745952 -5.422348 1.846632 -23.348135 31.379911 -5.257843 -5.065444 -36.775356 9.126320 5.325135 -0.644791 0.097502 19.540779 26.404566 5.522951 4.382287 -38.794060 -18.680079 -11.455399 
31.264374 51.558441 151.026962 179.980469 178.300537 0.712601 24.573633 0.682362 3.244313 -32.830322 -1.039473 0.709814 -17.781183 -7.807692 -0.222481 13.518768 10.090805 -2.914536 -10.256527 -0.734681 -0.809317 -67.955460 -10.409729 32.388115 -52.446140 8.219172 9.154421 8.524705 12.647240 -63.138077 6.318032 -3.285348 0.526703 70.004333 8.796632 45.653584 55.601940 -8.773994 10.490008 -8.534408 -12.637552 10.775249 -5.454381 1.846490 -23.473473 31.359997 -5.262915 -5.045625 -36.853226 9.225663 5.404219 -0.689089 0.104125 19.478628 26.404564 5.522953 4.382287 -38.669449 -18.637264 -11.338020 
31.261139 51.558441 151.022293 179.980469 178.290771 0.712599 24.554041 0.673521 3.239871 -32.781467 -1.030430 0.707416 -17.783447 -7.646310 -0.293095 13.490546 9.782592 -3.026284 -10.256527 -0.734681 -0.809317 -67.907295 -10.301851 32.592758 -52.457058 8.222328 9.154056 8.524705 12.647240 -63.372448 6.318032 -3.285348 0.526703 70.022400 8.808595 45.681984 55.591003 -8.771665 10.489972 -8.534408 -12.637552 11.165874 -5.423242 1.817292 -23.602985 31.360107 -5.257790 -5.063688 -37.050697 9.118163 5.447819 -0.658640 0.104789 19.471321 26.394846 5.519850 4.390539 -38.664101 -18.597343 -11.316270 
31.258625 51.554493 151.020142 -179.941391 178.301590 0.783276 24.612606 0.665407 3.176851 -32.801079 -1.052516 0.691503 -17.687922 -7.490362 -0.364178 13.395581 9.535657 -3.114815 -10.256527 -0.734681 -0.809317 -67.876717 -10.256679 32.422050 -52.541233 8.238670 9.185957 8.524705 12.647240 -62.854870 6.318032 -3.285348 0.526703 70.055931 8.773208 45.719700 55.559937 -8.768331 10.468596 -8.534408 -12.637552 11.497907 -5.330186 1.787330 -23.716831 31.350094 -5.262877 -5.044743 -37.124401 9.063638 5.412921 -0.573111 0.103976 19.497826 26.384619 5.522844 4.380509 -38.734753 -18.619453 -11.388476 
